<svg xmlns="http://www.w3.org/2000/svg" xmlns:xlink="http://www.w3.org/1999/xlink" width="156" height="126" viewBox="0 0 156 126" version="1.1"><defs><path d="M0 126L155.91 126 155.91 0.8 0 0.8"/></defs><g stroke="none" stroke-width="1" fill="none" fill-rule="evenodd"><mask fill="white"><use xlink:href="#path-1"/></mask><path d="M23.43 62.95C28.78 68.26 35.25 70.92 42.82 70.92 50.3 70.92 56.72 68.26 62.07 62.95 67.43 57.64 70.11 51.21 70.11 43.63 70.11 36.06 67.43 29.62 62.07 24.31 56.72 19 50.3 16.35 42.82 16.35 35.25 16.35 28.78 19 23.43 24.31 18.07 29.62 15.4 36.06 15.4 43.63 15.4 51.21 18.07 57.64 23.43 62.95M12.56 13.37C20.92 5.01 31.01 0.83 42.82 0.83 54.55 0.83 64.59 5.01 72.94 13.37 81.31 21.73 85.48 31.83 85.48 43.66 85.48 55.48 81.31 65.58 72.94 73.94 64.59 82.3 54.55 86.48 42.82 86.48 31.01 86.48 20.92 82.3 12.56 73.94 4.2 65.58 0.03 55.48 0.03 43.66 0.03 31.83 4.2 21.73 12.56 13.37" fill="#356031" mask="url(#mask-2)"/><path d="M155.91 43.72C155.91 31.91 151.72 21.79 143.36 13.4 135 5 124.87 0.8 112.95 0.8 101.12 0.8 91.03 5 82.67 13.41 74.3 21.81 70.13 31.93 70.13 43.75 70.13 55.58 74.3 65.68 82.67 74.04 91.02 82.4 101.11 86.58 112.92 86.58 120.78 86.58 127.85 84.75 134.17 81.1L127.17 66.99C122.66 69.67 117.93 71.02 112.96 71.02 105.48 71.02 99.06 68.34 93.72 62.99 88.36 57.64 85.69 51.22 85.69 43.75 85.69 36.19 88.36 29.73 93.72 24.39 99.06 19.03 105.47 16.36 112.94 16.36 120.5 16.36 126.98 19.03 132.37 24.38 137.77 29.73 140.47 36.19 140.47 43.75L140.47 55.37 140.51 55.36 140.51 84.12 155.9 84.11 155.91 57.51 155.91 43.72" fill="#F9C63A" mask="url(#mask-2)"/><path d="M42.86 86.49C39.34 86.49 35.97 86.12 32.76 85.37 35.96 86.11 39.31 86.48 42.82 86.48 54.55 86.48 64.59 82.3 72.94 73.94 74.75 72.14 76.36 70.25 77.77 68.29 77.77 68.3 77.78 68.3 77.79 68.31 76.38 70.27 74.78 72.14 72.98 73.94 64.62 82.3 54.58 86.49 42.86 86.49M35.1 69.89C30.76 68.67 26.86 66.36 23.43 62.95 18.07 57.64 15.4 51.21 15.4 43.63 15.4 36.06 18.07 29.62 23.43 24.31 28.78 19 35.25 16.35 42.82 16.35L42.84 16.35C35.27 16.35 28.81 19.01 23.46 24.31 18.11 29.62 15.43 36.06 15.43 43.64 15.43 51.21 18.11 57.64 23.46 62.96 26.89 66.36 30.77 68.67 35.1 69.89M77.83 19.1C76.4 17.11 74.77 15.2 72.94 13.37 64.6 5.01 54.56 0.84 42.84 0.83L42.86 0.83C54.58 0.83 64.62 5.01 72.98 13.37 74.8 15.19 76.42 17.09 77.84 19.08 77.84 19.09 77.83 19.09 77.83 19.1" fill="#88A87D"/><path d="M42.82 86.48C39.31 86.48 35.96 86.11 32.76 85.37 25.18 83.62 18.46 79.81 12.59 73.94 4.23 65.58 0.05 55.48 0.05 43.66 0.05 31.83 4.23 21.73 12.59 13.37 20.94 5.01 31.02 0.84 42.84 0.83 54.56 0.84 64.6 5.01 72.94 13.37 74.77 15.2 76.4 17.11 77.83 19.1 72.81 26.11 70.25 34.11 70.13 43.12 70.01 35.77 67.34 29.5 62.11 24.31 56.75 19 50.33 16.35 42.86 16.35L42.84 16.35 42.82 16.35C35.25 16.35 28.78 19 23.43 24.31 18.07 29.62 15.4 36.06 15.4 43.63 15.4 51.21 18.07 57.64 23.43 62.95 26.86 66.36 30.76 68.67 35.1 69.89 37.55 70.58 40.13 70.93 42.86 70.93 50.33 70.93 56.75 68.27 62.11 62.96 67.32 57.79 69.99 51.55 70.13 44.25 70.22 53.28 72.76 61.29 77.77 68.29 76.36 70.25 74.75 72.14 72.94 73.94 64.59 82.3 54.55 86.48 42.82 86.48" fill="#356031"/><path d="M77.79 68.31C77.78 68.3 77.77 68.3 77.77 68.29 72.76 61.29 70.22 53.28 70.13 44.25 70.14 44.05 70.14 43.84 70.14 43.64 70.14 43.47 70.14 43.29 70.13 43.12 70.25 34.11 72.81 26.11 77.83 19.1 77.83 19.09 77.84 19.09 77.84 19.08 82.95 26.21 85.51 34.4 85.51 43.66 85.51 52.94 82.93 61.16 77.79 68.31" fill="#89923A"/><path d="M4.35 110.49C4.35 112.51 5.69 114.68 7.9 114.68 10.1 114.68 11.44 112.51 11.44 110.49 11.44 108.4 10.1 106.26 7.9 106.26 5.69 106.26 4.35 108.4 4.35 110.49L4.35 110.49ZM15.79 110.49C15.79 115.14 12.61 118.47 7.9 118.47 3.18 118.47 0 115.14 0 110.49 0 105.8 3.21 102.47 7.9 102.47 12.58 102.47 15.79 105.8 15.79 110.49L15.79 110.49Z" fill="#356031"/><path d="M28.77 110.45C28.77 108.44 27.42 106.26 25.22 106.26 23.01 106.26 21.67 108.44 21.67 110.45 21.67 112.48 23.01 114.68 25.22 114.68 27.42 114.68 28.77 112.48 28.77 110.45L28.77 110.45ZM22.1 104.33C23.07 103.17 24.67 102.47 26.26 102.47 30.51 102.47 33.11 106.45 33.11 110.39 33.11 114.49 30.6 118.47 26.16 118.47 24.63 118.47 23.01 117.8 22.16 116.58L22.1 116.58 22.1 126 17.81 126 17.81 102.96 22.1 102.96 22.1 104.33 22.1 104.33Z" fill="#356031"/><path d="M44.4 108.5C44.19 106.97 43.21 105.47 41.56 105.47 39.84 105.47 38.89 106.94 38.68 108.5L44.4 108.5 44.4 108.5ZM38.56 111.16C38.56 113.06 39.29 115.2 41.52 115.2 42.93 115.2 43.82 114.34 44.4 113.15L48.35 113.79C47.31 116.79 44.68 118.47 41.52 118.47 36.87 118.47 34.03 115.17 34.03 110.61 34.03 106.05 36.45 102.47 41.31 102.47 46.24 102.47 48.44 106.11 48.44 110.64L48.44 111.16 38.56 111.16 38.56 111.16Z" fill="#356031"/><path d="M54.71 104.33L54.77 104.33C55.66 102.99 57.16 102.47 58.69 102.47 62.73 102.47 63.9 105.31 63.9 108.8L63.9 117.98 59.61 117.98 59.61 110.03C59.61 108.22 59.7 105.9 57.28 105.9 54.74 105.9 54.71 108.74 54.71 110.55L54.71 117.98 50.43 117.98 50.43 102.96 54.71 102.96 54.71 104.33" fill="#356031"/><path d="M85.14 110.39C85.14 108.37 83.76 106.2 81.56 106.2 79.35 106.2 78.01 108.37 78.01 110.39 78.01 112.41 79.35 114.62 81.56 114.62 83.76 114.62 85.14 112.41 85.14 110.39L85.14 110.39ZM88.93 117.92L84.71 117.92 84.71 116.54 84.65 116.54C83.73 117.74 82.14 118.41 80.58 118.41 76.17 118.41 73.66 114.4 73.66 110.33 73.66 106.35 76.2 102.4 80.52 102.4 82.08 102.4 83.67 103.08 84.71 104.3L84.71 102.9 88.93 102.9 88.93 117.92 88.93 117.92Z" fill="#F9C63A"/><path d="M102.24 107.49C101.33 106.57 100.41 106.02 99.09 106.02 96.68 106.02 95.3 108.28 95.3 110.48 95.3 112.84 96.8 114.8 99.25 114.8 100.41 114.8 101.48 114.22 102.24 113.36L102.24 117.49C101.08 118.13 99.86 118.41 98.54 118.41 94.1 118.41 90.95 114.77 90.95 110.45 90.95 105.98 94.23 102.4 98.76 102.4 99.95 102.4 101.2 102.71 102.24 103.35L102.24 107.49" fill="#F9C63A"/><path d="M115.13 107.49C114.21 106.57 113.29 106.02 111.97 106.02 109.56 106.02 108.18 108.28 108.18 110.48 108.18 112.84 109.68 114.8 112.13 114.8 113.29 114.8 114.36 114.22 115.13 113.36L115.13 117.49C113.96 118.13 112.74 118.41 111.42 118.41 106.99 118.41 103.84 114.77 103.84 110.45 103.84 105.98 107.11 102.4 111.64 102.4 112.83 102.4 114.09 102.71 115.13 103.35L115.13 107.49" fill="#F9C63A"/><path d="M128.1 108.43C127.89 106.9 126.91 105.4 125.26 105.4 123.54 105.4 122.59 106.87 122.38 108.43L128.1 108.43 128.1 108.43ZM122.26 111.1C122.26 112.99 122.99 115.13 125.23 115.13 126.63 115.13 127.52 114.28 128.1 113.08L132.05 113.73C131.01 116.73 128.38 118.41 125.23 118.41 120.57 118.41 117.73 115.11 117.73 110.55 117.73 105.98 120.15 102.4 125.01 102.4 129.94 102.4 132.14 106.05 132.14 110.58L132.14 111.1 122.26 111.1 122.26 111.1Z" fill="#F9C63A"/><path d="M140.83 106.45C140.22 105.86 139.42 105.4 138.57 105.4 137.86 105.4 137.16 105.95 137.16 106.69 137.16 107.79 138.72 108.1 140.25 108.77 141.81 109.44 143.34 110.48 143.34 113.08 143.34 116.42 140.65 118.41 137.49 118.41 135.48 118.41 133.52 117.49 132.2 115.9L134.16 113.36C134.99 114.28 136.09 115.11 137.34 115.11 138.29 115.11 139.06 114.46 139.06 113.48 139.06 112.17 137.56 111.86 136.06 111.22 134.56 110.58 133.06 109.69 133.06 107.27 133.06 104.46 135.02 102.4 137.83 102.4 139.42 102.4 141.44 102.9 142.67 103.97L140.83 106.45" fill="#F9C63A"/><path d="M153.38 106.45C152.76 105.86 151.97 105.4 151.11 105.4 150.41 105.4 149.71 105.95 149.71 106.69 149.71 107.79 151.27 108.1 152.8 108.77 154.35 109.44 155.89 110.48 155.89 113.08 155.89 116.42 153.19 118.41 150.04 118.41 148.02 118.41 146.06 117.49 144.75 115.9L146.71 113.36C147.53 114.28 148.63 115.11 149.89 115.11 150.84 115.11 151.6 114.46 151.6 113.48 151.6 112.17 150.1 111.86 148.6 111.22 147.1 110.58 145.6 109.69 145.6 107.27 145.6 104.46 147.56 102.4 150.38 102.4 151.97 102.4 153.99 102.9 155.21 103.97L153.38 106.45" fill="#F9C63A"/></g></svg>